<svg id="Livello_1" data-name="Livello 1" xmlns="http://www.w3.org/2000/svg" viewBox="0 0 79.37 79.38"><defs><style>.cls-1{fill:#ff7c00;}.cls-2{fill:#282d56;}</style></defs><title>logo</title><polygon class="cls-1" points="68.03 28.35 62.36 34.02 56.69 39.69 51.02 45.36 45.35 51.03 39.69 56.7 34.02 51.03 28.35 45.36 22.68 39.69 17.01 34.02 11.34 28.35 17.01 22.68 22.68 28.35 28.35 34.02 34.02 39.69 39.69 45.36 45.35 39.69 51.02 34.02 56.69 28.35 62.36 22.68 68.03 28.35"/><polygon class="cls-2" points="79.37 39.69 73.7 45.36 68.03 51.03 62.36 56.7 56.69 62.37 51.02 68.04 45.35 73.71 39.69 79.38 34.02 73.71 28.35 68.04 22.68 62.37 17.01 56.7 11.34 51.03 5.67 45.36 0 39.69 5.67 34.02 11.34 39.69 17.01 45.36 22.68 51.03 28.35 56.7 34.02 62.37 39.69 68.04 45.35 62.37 51.02 56.7 56.69 51.03 62.36 45.36 68.03 39.69 73.7 34.02 79.37 39.69"/><polygon class="cls-2" points="56.69 17.01 51.02 22.68 45.35 17.01 39.69 11.34 34.02 17.01 28.35 22.68 22.68 28.35 17.01 22.68 34.02 5.67 39.68 0 51.02 11.34 56.69 17.01"/></svg>